M48
;DRILL file {KiCad 4.0.5} date 05/04/17 19:44:39
;FORMAT={2:4/ absolute / inch / suppress leading zeros}
FMAT,2
INCH,TZ
T1C0.013
T2C0.026
T3C0.087
%
G90
G05
M72
T1
X40350Y-26700
X40650Y-30400
X40850Y-29850
X40937Y-24700
X41100Y-31250
X41350Y-31650
X41600Y-31100
X42450Y-26350
X42700Y-26600
X42750Y-26950
X42750Y-27350
X42800Y-31700
X42900Y-32200
X43750Y-30842
X44500Y-30200
X44550Y-22550
X45150Y-32700
X45300Y-29650
X45806Y-31274
X46500Y-26150
X46575Y-23650
X46600Y-27800
X46750Y-25900
X46750Y-30008
X47200Y-25800
X47275Y-29025
X47600Y-27050
X47600Y-27600
X47700Y-25900
X47725Y-24550
X47925Y-23800
X48492Y-29750
X50150Y-30050
T2
X48750Y-32150
X48750Y-32650
X48750Y-33150
X48750Y-33650
X48750Y-34150
T3
X40680Y-22230
X40695Y-34020
X50120Y-22230
X50120Y-34020
T0
M30
