G04 #@! TF.FileFunction,Copper,L2,Inr,Signal*
%FSLAX46Y46*%
G04 Gerber Fmt 4.6, Leading zero omitted, Abs format (unit mm)*
G04 Created by KiCad (PCBNEW 4.0.5) date 05/10/17 18:34:13*
%MOMM*%
%LPD*%
G01*
G04 APERTURE LIST*
%ADD10C,0.100000*%
%ADD11R,1.000000X1.000000*%
%ADD12O,1.000000X1.000000*%
%ADD13C,0.685800*%
%ADD14C,0.300000*%
%ADD15C,0.152400*%
G04 APERTURE END LIST*
D10*
D11*
X123825000Y-86741000D03*
D12*
X123825000Y-85471000D03*
X123825000Y-84201000D03*
X123825000Y-82931000D03*
X123825000Y-81661000D03*
D13*
X114681000Y-80708500D03*
X115951000Y-57467500D03*
X128143000Y-82550000D03*
X120078500Y-76962000D03*
X104648000Y-76454000D03*
X110426500Y-76771500D03*
X113220500Y-72580500D03*
X117538500Y-80772000D03*
X111442500Y-63182500D03*
X115633500Y-64135000D03*
X120586500Y-64135000D03*
X127063500Y-64325500D03*
X126238000Y-75184000D03*
X107188000Y-59753500D03*
X103822500Y-70929500D03*
X119634000Y-58483500D03*
X106489500Y-83693000D03*
X122999500Y-77216000D03*
X121856500Y-80137000D03*
X111315500Y-72644000D03*
X115125500Y-84709000D03*
X101917500Y-74612500D03*
X101981000Y-70802500D03*
X103124000Y-69659500D03*
X109093000Y-73469500D03*
X103251000Y-68516500D03*
X108013500Y-71628000D03*
X117094000Y-83502500D03*
X116522500Y-72580500D03*
X115633500Y-72580500D03*
X110934500Y-80772000D03*
X112712500Y-84518500D03*
X110680500Y-70866000D03*
X106553000Y-74295000D03*
X107823000Y-83566000D03*
X108013500Y-82677000D03*
X107886500Y-68643500D03*
X109029500Y-75184000D03*
X107950000Y-69596000D03*
X107886500Y-81534000D03*
X112268000Y-72644000D03*
X116205000Y-84772500D03*
X108521500Y-59372500D03*
X107823000Y-66675000D03*
X117030500Y-59690000D03*
X111061500Y-57531000D03*
X108775500Y-58420000D03*
X108013500Y-67691000D03*
X112141000Y-78041500D03*
X120586500Y-79819500D03*
X117221000Y-60896500D03*
X111760000Y-66738500D03*
X127190500Y-61087000D03*
X125857000Y-69723000D03*
X110807500Y-66738500D03*
X128524000Y-75946000D03*
X110807500Y-69850000D03*
X107251500Y-61023500D03*
X110363000Y-63881000D03*
X125095000Y-65532000D03*
X119951500Y-67691000D03*
D14*
X104648000Y-76454000D02*
X104648000Y-76517500D01*
D15*
X111315500Y-72644000D02*
X111315500Y-75438000D01*
X111315500Y-75438000D02*
X112776000Y-76898500D01*
X112776000Y-76898500D02*
X112776000Y-80518000D01*
X112776000Y-80518000D02*
X114173000Y-81915000D01*
X114173000Y-81915000D02*
X114173000Y-83756500D01*
X114173000Y-83756500D02*
X115125500Y-84709000D01*
X103187500Y-69723000D02*
X103124000Y-69659500D01*
X103187500Y-72898000D02*
X103187500Y-69723000D01*
X103695500Y-73406000D02*
X103187500Y-72898000D01*
X109029500Y-73406000D02*
X103695500Y-73406000D01*
X109093000Y-73469500D02*
X109029500Y-73406000D01*
X104521000Y-69786500D02*
X103251000Y-68516500D01*
X104521000Y-72326500D02*
X104521000Y-69786500D01*
X105156000Y-72961500D02*
X104521000Y-72326500D01*
X106680000Y-72961500D02*
X105156000Y-72961500D01*
X108013500Y-71628000D02*
X106680000Y-72961500D01*
X116586000Y-82994500D02*
X117094000Y-83502500D01*
X116586000Y-72580500D02*
X116586000Y-82994500D01*
X116522500Y-72580500D02*
X116586000Y-72580500D01*
X116903500Y-84201000D02*
X123825000Y-84201000D01*
X116141500Y-83439000D02*
X116903500Y-84201000D01*
X116141500Y-73215500D02*
X116141500Y-83439000D01*
X115633500Y-72580500D02*
X116141500Y-73215500D01*
X106553000Y-82296000D02*
X106553000Y-74295000D01*
X107823000Y-83566000D02*
X106553000Y-82296000D01*
X109029500Y-75184000D02*
X107632500Y-75184000D01*
X108013500Y-82677000D02*
X107124500Y-81788000D01*
X107124500Y-75692000D02*
X107124500Y-81788000D01*
X107632500Y-75184000D02*
X107124500Y-75692000D01*
X108902500Y-75311000D02*
X109029500Y-75184000D01*
X107886500Y-81534000D02*
X107886500Y-76454000D01*
X107950000Y-69596000D02*
X109918500Y-71564500D01*
X109918500Y-71564500D02*
X109918500Y-73850500D01*
X109918500Y-73850500D02*
X109918500Y-74295000D01*
X109918500Y-74295000D02*
X109918500Y-74612500D01*
X109918500Y-74612500D02*
X109918500Y-75692000D01*
X109474000Y-76136500D02*
X109918500Y-75692000D01*
X108204000Y-76136500D02*
X109474000Y-76136500D01*
X107886500Y-76454000D02*
X108204000Y-76136500D01*
X107886500Y-81534000D02*
X107950000Y-81470500D01*
X112268000Y-75374500D02*
X112268000Y-72644000D01*
X113601500Y-76708000D02*
X112268000Y-75374500D01*
X113601500Y-80645000D02*
X113601500Y-76708000D01*
X115760500Y-82804000D02*
X113601500Y-80645000D01*
X115760500Y-84328000D02*
X115760500Y-82804000D01*
X116205000Y-84772500D02*
X115760500Y-84328000D01*
X108013500Y-58864500D02*
X108521500Y-59372500D01*
X105473500Y-58864500D02*
X108013500Y-58864500D01*
X104584500Y-59753500D02*
X105473500Y-58864500D01*
X104584500Y-63436500D02*
X104584500Y-59753500D01*
X107823000Y-66675000D02*
X104584500Y-63436500D01*
X105346500Y-58420000D02*
X108775500Y-58420000D01*
X104140000Y-59626500D02*
X105346500Y-58420000D01*
X104140000Y-63817500D02*
X104140000Y-59626500D01*
X108013500Y-67691000D02*
X104140000Y-63817500D01*
X119189500Y-78422500D02*
X120586500Y-79819500D01*
X119189500Y-62865000D02*
X119189500Y-78422500D01*
X117221000Y-60896500D02*
X119189500Y-62865000D01*
X107315000Y-61087000D02*
X107251500Y-61023500D01*
X107569000Y-61087000D02*
X107315000Y-61087000D01*
X110363000Y-63881000D02*
X107569000Y-61087000D01*
X124015500Y-65532000D02*
X125095000Y-65532000D01*
X121920000Y-67627500D02*
X124015500Y-65532000D01*
X120015000Y-67627500D02*
X121920000Y-67627500D01*
X119951500Y-67691000D02*
X120015000Y-67627500D01*
M02*
