G04 #@! TF.FileFunction,Legend,Top*
%FSLAX46Y46*%
G04 Gerber Fmt 4.6, Leading zero omitted, Abs format (unit mm)*
G04 Created by KiCad (PCBNEW 4.0.5) date 05/04/17 19:44:32*
%MOMM*%
%LPD*%
G01*
G04 APERTURE LIST*
%ADD10C,0.100000*%
%ADD11C,0.125000*%
%ADD12C,0.200000*%
%ADD13C,0.120000*%
%ADD14C,0.150000*%
%ADD15C,0.080000*%
G04 APERTURE END LIST*
D10*
D11*
X120529500Y-86847357D02*
X120986643Y-86847357D01*
X120758072Y-87075929D02*
X120758072Y-86618786D01*
X121215214Y-86475929D02*
X121586643Y-86475929D01*
X121386643Y-86704500D01*
X121472357Y-86704500D01*
X121529500Y-86733071D01*
X121558071Y-86761643D01*
X121586643Y-86818786D01*
X121586643Y-86961643D01*
X121558071Y-87018786D01*
X121529500Y-87047357D01*
X121472357Y-87075929D01*
X121300929Y-87075929D01*
X121243786Y-87047357D01*
X121215214Y-87018786D01*
X121843786Y-87018786D02*
X121872358Y-87047357D01*
X121843786Y-87075929D01*
X121815215Y-87047357D01*
X121843786Y-87018786D01*
X121843786Y-87075929D01*
X122072357Y-86475929D02*
X122443786Y-86475929D01*
X122243786Y-86704500D01*
X122329500Y-86704500D01*
X122386643Y-86733071D01*
X122415214Y-86761643D01*
X122443786Y-86818786D01*
X122443786Y-86961643D01*
X122415214Y-87018786D01*
X122386643Y-87047357D01*
X122329500Y-87075929D01*
X122158072Y-87075929D01*
X122100929Y-87047357D01*
X122072357Y-87018786D01*
X122615215Y-86475929D02*
X122815215Y-87075929D01*
X123015215Y-86475929D01*
X120864429Y-85713857D02*
X120950143Y-85742429D01*
X121093000Y-85742429D01*
X121150143Y-85713857D01*
X121178714Y-85685286D01*
X121207286Y-85628143D01*
X121207286Y-85571000D01*
X121178714Y-85513857D01*
X121150143Y-85485286D01*
X121093000Y-85456714D01*
X120978714Y-85428143D01*
X120921572Y-85399571D01*
X120893000Y-85371000D01*
X120864429Y-85313857D01*
X120864429Y-85256714D01*
X120893000Y-85199571D01*
X120921572Y-85171000D01*
X120978714Y-85142429D01*
X121121572Y-85142429D01*
X121207286Y-85171000D01*
X121464429Y-85742429D02*
X121464429Y-85142429D01*
X121607286Y-85142429D01*
X121693001Y-85171000D01*
X121750143Y-85228143D01*
X121778715Y-85285286D01*
X121807286Y-85399571D01*
X121807286Y-85485286D01*
X121778715Y-85599571D01*
X121750143Y-85656714D01*
X121693001Y-85713857D01*
X121607286Y-85742429D01*
X121464429Y-85742429D01*
X122064429Y-85742429D02*
X122064429Y-85142429D01*
X122464429Y-85142429D02*
X122578715Y-85142429D01*
X122635857Y-85171000D01*
X122693000Y-85228143D01*
X122721572Y-85342429D01*
X122721572Y-85542429D01*
X122693000Y-85656714D01*
X122635857Y-85713857D01*
X122578715Y-85742429D01*
X122464429Y-85742429D01*
X122407286Y-85713857D01*
X122350143Y-85656714D01*
X122321572Y-85542429D01*
X122321572Y-85342429D01*
X122350143Y-85228143D01*
X122407286Y-85171000D01*
X122464429Y-85142429D01*
X125477715Y-84316857D02*
X125563429Y-84345429D01*
X125706286Y-84345429D01*
X125763429Y-84316857D01*
X125792000Y-84288286D01*
X125820572Y-84231143D01*
X125820572Y-84174000D01*
X125792000Y-84116857D01*
X125763429Y-84088286D01*
X125706286Y-84059714D01*
X125592000Y-84031143D01*
X125534858Y-84002571D01*
X125506286Y-83974000D01*
X125477715Y-83916857D01*
X125477715Y-83859714D01*
X125506286Y-83802571D01*
X125534858Y-83774000D01*
X125592000Y-83745429D01*
X125734858Y-83745429D01*
X125820572Y-83774000D01*
X126420572Y-84288286D02*
X126392001Y-84316857D01*
X126306287Y-84345429D01*
X126249144Y-84345429D01*
X126163429Y-84316857D01*
X126106287Y-84259714D01*
X126077715Y-84202571D01*
X126049144Y-84088286D01*
X126049144Y-84002571D01*
X126077715Y-83888286D01*
X126106287Y-83831143D01*
X126163429Y-83774000D01*
X126249144Y-83745429D01*
X126306287Y-83745429D01*
X126392001Y-83774000D01*
X126420572Y-83802571D01*
X126963429Y-84345429D02*
X126677715Y-84345429D01*
X126677715Y-83745429D01*
X127163429Y-84345429D02*
X127163429Y-83745429D01*
X127506286Y-84345429D02*
X127249143Y-84002571D01*
X127506286Y-83745429D02*
X127163429Y-84088286D01*
X126099928Y-83138929D02*
X125899928Y-82853214D01*
X125757071Y-83138929D02*
X125757071Y-82538929D01*
X125985643Y-82538929D01*
X126042785Y-82567500D01*
X126071357Y-82596071D01*
X126099928Y-82653214D01*
X126099928Y-82738929D01*
X126071357Y-82796071D01*
X126042785Y-82824643D01*
X125985643Y-82853214D01*
X125757071Y-82853214D01*
X126328500Y-83110357D02*
X126414214Y-83138929D01*
X126557071Y-83138929D01*
X126614214Y-83110357D01*
X126642785Y-83081786D01*
X126671357Y-83024643D01*
X126671357Y-82967500D01*
X126642785Y-82910357D01*
X126614214Y-82881786D01*
X126557071Y-82853214D01*
X126442785Y-82824643D01*
X126385643Y-82796071D01*
X126357071Y-82767500D01*
X126328500Y-82710357D01*
X126328500Y-82653214D01*
X126357071Y-82596071D01*
X126385643Y-82567500D01*
X126442785Y-82538929D01*
X126585643Y-82538929D01*
X126671357Y-82567500D01*
X126842786Y-82538929D02*
X127185643Y-82538929D01*
X127014214Y-83138929D02*
X127014214Y-82538929D01*
X125971358Y-81170500D02*
X125914215Y-81141929D01*
X125828501Y-81141929D01*
X125742786Y-81170500D01*
X125685644Y-81227643D01*
X125657072Y-81284786D01*
X125628501Y-81399071D01*
X125628501Y-81484786D01*
X125657072Y-81599071D01*
X125685644Y-81656214D01*
X125742786Y-81713357D01*
X125828501Y-81741929D01*
X125885644Y-81741929D01*
X125971358Y-81713357D01*
X125999929Y-81684786D01*
X125999929Y-81484786D01*
X125885644Y-81484786D01*
X126257072Y-81741929D02*
X126257072Y-81141929D01*
X126599929Y-81741929D01*
X126599929Y-81141929D01*
X126885643Y-81741929D02*
X126885643Y-81141929D01*
X127028500Y-81141929D01*
X127114215Y-81170500D01*
X127171357Y-81227643D01*
X127199929Y-81284786D01*
X127228500Y-81399071D01*
X127228500Y-81484786D01*
X127199929Y-81599071D01*
X127171357Y-81656214D01*
X127114215Y-81713357D01*
X127028500Y-81741929D01*
X126885643Y-81741929D01*
D12*
X121729500Y-70739000D02*
G75*
G03X121729500Y-70739000I-254000J0D01*
G01*
X108021317Y-62547500D02*
G75*
G03X108021317Y-62547500I-261817J0D01*
G01*
X118783453Y-56515000D02*
G75*
G03X118783453Y-56515000I-228953J0D01*
G01*
D13*
X129590800Y-56540400D02*
G75*
G03X129590800Y-56540400I-2286000J0D01*
G01*
X129565400Y-86410800D02*
G75*
G03X129565400Y-86410800I-2286000J0D01*
G01*
X105714800Y-86410800D02*
G75*
G03X105714800Y-86410800I-2286000J0D01*
G01*
X119595000Y-77970000D02*
X119595000Y-76970000D01*
X117895000Y-76970000D02*
X117895000Y-77970000D01*
X127500000Y-64174000D02*
X126500000Y-64174000D01*
X126500000Y-65874000D02*
X127500000Y-65874000D01*
X122420000Y-74715000D02*
X121420000Y-74715000D01*
X121420000Y-76415000D02*
X122420000Y-76415000D01*
X159835001Y-67407000D02*
X158835001Y-67407000D01*
X158835001Y-69107000D02*
X159835001Y-69107000D01*
X106465000Y-80145000D02*
X106465000Y-81145000D01*
X108165000Y-81145000D02*
X108165000Y-80145000D01*
X111975000Y-77589000D02*
X111975000Y-76589000D01*
X110275000Y-76589000D02*
X110275000Y-77589000D01*
X126531000Y-72779000D02*
X126531000Y-73779000D01*
X128231000Y-73779000D02*
X128231000Y-72779000D01*
X128231000Y-68953000D02*
X128231000Y-67953000D01*
X126531000Y-67953000D02*
X126531000Y-68953000D01*
X124531500Y-62953000D02*
X125531500Y-62953000D01*
X125531500Y-61253000D02*
X124531500Y-61253000D01*
X120562000Y-78875000D02*
X120562000Y-79875000D01*
X122262000Y-79875000D02*
X122262000Y-78875000D01*
X110197000Y-77589000D02*
X110197000Y-76589000D01*
X108497000Y-76589000D02*
X108497000Y-77589000D01*
X125215000Y-86106000D02*
X125215000Y-80906000D01*
X125215000Y-80906000D02*
X122435000Y-80906000D01*
X122435000Y-80906000D02*
X122435000Y-86106000D01*
X122435000Y-86106000D02*
X125215000Y-86106000D01*
X125215000Y-86741000D02*
X125215000Y-87496000D01*
X125215000Y-87496000D02*
X123825000Y-87496000D01*
D14*
X117800000Y-82123000D02*
X118900000Y-82123000D01*
X118900000Y-82123000D02*
X118900000Y-81823000D01*
X118900000Y-81823000D02*
X120100000Y-81823000D01*
X120100000Y-81823000D02*
X120100000Y-85623000D01*
X120100000Y-85623000D02*
X119200000Y-85623000D01*
X119200000Y-85623000D02*
X119200000Y-86823000D01*
X119200000Y-86823000D02*
X111500000Y-86823000D01*
X111500000Y-86823000D02*
X111500000Y-85723000D01*
X111500000Y-85723000D02*
X110600000Y-85723000D01*
X110600000Y-85723000D02*
X110600000Y-81823000D01*
X110600000Y-81823000D02*
X111900000Y-81823000D01*
X111900000Y-81823000D02*
X111900000Y-82123000D01*
X111900000Y-82123000D02*
X117800000Y-82123000D01*
D13*
X158305001Y-80187000D02*
X157105001Y-80187000D01*
X157105001Y-78427000D02*
X158305001Y-78427000D01*
X124495000Y-59445000D02*
X125695000Y-59445000D01*
X125695000Y-61205000D02*
X124495000Y-61205000D01*
X124451000Y-56423000D02*
X124451000Y-57623000D01*
X122691000Y-57623000D02*
X122691000Y-56423000D01*
X112150000Y-77816000D02*
X112150000Y-76616000D01*
X113910000Y-76616000D02*
X113910000Y-77816000D01*
X151536191Y-65457000D02*
X152536191Y-65457000D01*
X151536191Y-65167000D02*
X151536191Y-65457000D01*
X154836191Y-65457000D02*
X153836191Y-65457000D01*
X154836191Y-65457000D02*
X154836191Y-65167000D01*
X151536191Y-62957000D02*
X151536191Y-62667000D01*
X151536191Y-62667000D02*
X154836191Y-62667000D01*
X154836191Y-62667000D02*
X154836191Y-62957000D01*
X105272000Y-78445000D02*
X107072000Y-78445000D01*
X107072000Y-75225000D02*
X104622000Y-75225000D01*
D14*
X122370000Y-71697000D02*
X122370000Y-71472000D01*
X115120000Y-71697000D02*
X115120000Y-71372000D01*
X115120000Y-64447000D02*
X115120000Y-64772000D01*
X122370000Y-64447000D02*
X122370000Y-64772000D01*
X122370000Y-71697000D02*
X122045000Y-71697000D01*
X122370000Y-64447000D02*
X122045000Y-64447000D01*
X115120000Y-64447000D02*
X115445000Y-64447000D01*
X115120000Y-71697000D02*
X115445000Y-71697000D01*
X122370000Y-71472000D02*
X123795000Y-71472000D01*
X115781000Y-55781500D02*
X115781000Y-55831500D01*
X119931000Y-55781500D02*
X119931000Y-55926500D01*
X119931000Y-60931500D02*
X119931000Y-60786500D01*
X115781000Y-60931500D02*
X115781000Y-60786500D01*
X115781000Y-55781500D02*
X119931000Y-55781500D01*
X115781000Y-60931500D02*
X119931000Y-60931500D01*
X115781000Y-55831500D02*
X114381000Y-55831500D01*
X108755000Y-63408000D02*
X108755000Y-63358000D01*
X104605000Y-63408000D02*
X104605000Y-63263000D01*
X104605000Y-58258000D02*
X104605000Y-58403000D01*
X108755000Y-58258000D02*
X108755000Y-58403000D01*
X108755000Y-63408000D02*
X104605000Y-63408000D01*
X108755000Y-58258000D02*
X104605000Y-58258000D01*
X108755000Y-63358000D02*
X110155000Y-63358000D01*
D13*
X116857000Y-78805000D02*
X116857000Y-76905000D01*
X114537000Y-77405000D02*
X114537000Y-78805000D01*
X124399000Y-71162000D02*
X124399000Y-70062000D01*
X126299000Y-71162000D02*
X126299000Y-70062000D01*
X124449000Y-72562000D02*
X126249000Y-72562000D01*
X110556000Y-62907000D02*
X110556000Y-61807000D01*
X112456000Y-62907000D02*
X112456000Y-61807000D01*
X110606000Y-64307000D02*
X112406000Y-64307000D01*
X105613200Y-56464200D02*
G75*
G03X105613200Y-56464200I-2286000J0D01*
G01*
D14*
X120954967Y-48293281D02*
X120621633Y-47817090D01*
X120383538Y-48293281D02*
X120383538Y-47293281D01*
X120764491Y-47293281D01*
X120859729Y-47340900D01*
X120907348Y-47388519D01*
X120954967Y-47483757D01*
X120954967Y-47626614D01*
X120907348Y-47721852D01*
X120859729Y-47769471D01*
X120764491Y-47817090D01*
X120383538Y-47817090D01*
X121383538Y-47769471D02*
X121716872Y-47769471D01*
X121859729Y-48293281D02*
X121383538Y-48293281D01*
X121383538Y-47293281D01*
X121859729Y-47293281D01*
X122621634Y-47769471D02*
X122288300Y-47769471D01*
X122288300Y-48293281D02*
X122288300Y-47293281D01*
X122764491Y-47293281D01*
X123288300Y-47293281D02*
X123288300Y-47531376D01*
X123050205Y-47436138D02*
X123288300Y-47531376D01*
X123526396Y-47436138D01*
X123145443Y-47721852D02*
X123288300Y-47531376D01*
X123431158Y-47721852D01*
X124050205Y-47293281D02*
X124050205Y-47531376D01*
X123812110Y-47436138D02*
X124050205Y-47531376D01*
X124288301Y-47436138D01*
X123907348Y-47721852D02*
X124050205Y-47531376D01*
X124193063Y-47721852D01*
X119469067Y-96578681D02*
X119135733Y-96102490D01*
X118897638Y-96578681D02*
X118897638Y-95578681D01*
X119278591Y-95578681D01*
X119373829Y-95626300D01*
X119421448Y-95673919D01*
X119469067Y-95769157D01*
X119469067Y-95912014D01*
X119421448Y-96007252D01*
X119373829Y-96054871D01*
X119278591Y-96102490D01*
X118897638Y-96102490D01*
X119897638Y-96054871D02*
X120230972Y-96054871D01*
X120373829Y-96578681D02*
X119897638Y-96578681D01*
X119897638Y-95578681D01*
X120373829Y-95578681D01*
X121135734Y-96054871D02*
X120802400Y-96054871D01*
X120802400Y-96578681D02*
X120802400Y-95578681D01*
X121278591Y-95578681D01*
X121802400Y-95578681D02*
X121802400Y-95816776D01*
X121564305Y-95721538D02*
X121802400Y-95816776D01*
X122040496Y-95721538D01*
X121659543Y-96007252D02*
X121802400Y-95816776D01*
X121945258Y-96007252D01*
X122564305Y-95578681D02*
X122564305Y-95816776D01*
X122326210Y-95721538D02*
X122564305Y-95816776D01*
X122802401Y-95721538D01*
X122421448Y-96007252D02*
X122564305Y-95816776D01*
X122707163Y-96007252D01*
X92824467Y-83561181D02*
X92491133Y-83084990D01*
X92253038Y-83561181D02*
X92253038Y-82561181D01*
X92633991Y-82561181D01*
X92729229Y-82608800D01*
X92776848Y-82656419D01*
X92824467Y-82751657D01*
X92824467Y-82894514D01*
X92776848Y-82989752D01*
X92729229Y-83037371D01*
X92633991Y-83084990D01*
X92253038Y-83084990D01*
X93253038Y-83037371D02*
X93586372Y-83037371D01*
X93729229Y-83561181D02*
X93253038Y-83561181D01*
X93253038Y-82561181D01*
X93729229Y-82561181D01*
X94491134Y-83037371D02*
X94157800Y-83037371D01*
X94157800Y-83561181D02*
X94157800Y-82561181D01*
X94633991Y-82561181D01*
X95157800Y-82561181D02*
X95157800Y-82799276D01*
X94919705Y-82704038D02*
X95157800Y-82799276D01*
X95395896Y-82704038D01*
X95014943Y-82989752D02*
X95157800Y-82799276D01*
X95300658Y-82989752D01*
X95919705Y-82561181D02*
X95919705Y-82799276D01*
X95681610Y-82704038D02*
X95919705Y-82799276D01*
X96157801Y-82704038D01*
X95776848Y-82989752D02*
X95919705Y-82799276D01*
X96062563Y-82989752D01*
X118975143Y-80621166D02*
X119022762Y-80668785D01*
X119070381Y-80811642D01*
X119070381Y-80906880D01*
X119022762Y-81049738D01*
X118927524Y-81144976D01*
X118832286Y-81192595D01*
X118641810Y-81240214D01*
X118498952Y-81240214D01*
X118308476Y-81192595D01*
X118213238Y-81144976D01*
X118118000Y-81049738D01*
X118070381Y-80906880D01*
X118070381Y-80811642D01*
X118118000Y-80668785D01*
X118165619Y-80621166D01*
X119070381Y-79668785D02*
X119070381Y-80240214D01*
X119070381Y-79954500D02*
X118070381Y-79954500D01*
X118213238Y-80049738D01*
X118308476Y-80144976D01*
X118356095Y-80240214D01*
X126833334Y-63857143D02*
X126785715Y-63904762D01*
X126642858Y-63952381D01*
X126547620Y-63952381D01*
X126404762Y-63904762D01*
X126309524Y-63809524D01*
X126261905Y-63714286D01*
X126214286Y-63523810D01*
X126214286Y-63380952D01*
X126261905Y-63190476D01*
X126309524Y-63095238D01*
X126404762Y-63000000D01*
X126547620Y-62952381D01*
X126642858Y-62952381D01*
X126785715Y-63000000D01*
X126833334Y-63047619D01*
X127214286Y-63047619D02*
X127261905Y-63000000D01*
X127357143Y-62952381D01*
X127595239Y-62952381D01*
X127690477Y-63000000D01*
X127738096Y-63047619D01*
X127785715Y-63142857D01*
X127785715Y-63238095D01*
X127738096Y-63380952D01*
X127166667Y-63952381D01*
X127785715Y-63952381D01*
X124737834Y-75985643D02*
X124690215Y-76033262D01*
X124547358Y-76080881D01*
X124452120Y-76080881D01*
X124309262Y-76033262D01*
X124214024Y-75938024D01*
X124166405Y-75842786D01*
X124118786Y-75652310D01*
X124118786Y-75509452D01*
X124166405Y-75318976D01*
X124214024Y-75223738D01*
X124309262Y-75128500D01*
X124452120Y-75080881D01*
X124547358Y-75080881D01*
X124690215Y-75128500D01*
X124737834Y-75176119D01*
X125071167Y-75080881D02*
X125690215Y-75080881D01*
X125356881Y-75461833D01*
X125499739Y-75461833D01*
X125594977Y-75509452D01*
X125642596Y-75557071D01*
X125690215Y-75652310D01*
X125690215Y-75890405D01*
X125642596Y-75985643D01*
X125594977Y-76033262D01*
X125499739Y-76080881D01*
X125214024Y-76080881D01*
X125118786Y-76033262D01*
X125071167Y-75985643D01*
X159168335Y-66864143D02*
X159120716Y-66911762D01*
X158977859Y-66959381D01*
X158882621Y-66959381D01*
X158739763Y-66911762D01*
X158644525Y-66816524D01*
X158596906Y-66721286D01*
X158549287Y-66530810D01*
X158549287Y-66387952D01*
X158596906Y-66197476D01*
X158644525Y-66102238D01*
X158739763Y-66007000D01*
X158882621Y-65959381D01*
X158977859Y-65959381D01*
X159120716Y-66007000D01*
X159168335Y-66054619D01*
X160025478Y-66292714D02*
X160025478Y-66959381D01*
X159787382Y-65911762D02*
X159549287Y-66626048D01*
X160168335Y-66626048D01*
X107735643Y-83986666D02*
X107783262Y-84034285D01*
X107830881Y-84177142D01*
X107830881Y-84272380D01*
X107783262Y-84415238D01*
X107688024Y-84510476D01*
X107592786Y-84558095D01*
X107402310Y-84605714D01*
X107259452Y-84605714D01*
X107068976Y-84558095D01*
X106973738Y-84510476D01*
X106878500Y-84415238D01*
X106830881Y-84272380D01*
X106830881Y-84177142D01*
X106878500Y-84034285D01*
X106926119Y-83986666D01*
X106830881Y-83081904D02*
X106830881Y-83558095D01*
X107307071Y-83605714D01*
X107259452Y-83558095D01*
X107211833Y-83462857D01*
X107211833Y-83224761D01*
X107259452Y-83129523D01*
X107307071Y-83081904D01*
X107402310Y-83034285D01*
X107640405Y-83034285D01*
X107735643Y-83081904D01*
X107783262Y-83129523D01*
X107830881Y-83224761D01*
X107830881Y-83462857D01*
X107783262Y-83558095D01*
X107735643Y-83605714D01*
X111482143Y-74080666D02*
X111529762Y-74128285D01*
X111577381Y-74271142D01*
X111577381Y-74366380D01*
X111529762Y-74509238D01*
X111434524Y-74604476D01*
X111339286Y-74652095D01*
X111148810Y-74699714D01*
X111005952Y-74699714D01*
X110815476Y-74652095D01*
X110720238Y-74604476D01*
X110625000Y-74509238D01*
X110577381Y-74366380D01*
X110577381Y-74271142D01*
X110625000Y-74128285D01*
X110672619Y-74080666D01*
X110577381Y-73223523D02*
X110577381Y-73414000D01*
X110625000Y-73509238D01*
X110672619Y-73556857D01*
X110815476Y-73652095D01*
X111005952Y-73699714D01*
X111386905Y-73699714D01*
X111482143Y-73652095D01*
X111529762Y-73604476D01*
X111577381Y-73509238D01*
X111577381Y-73318761D01*
X111529762Y-73223523D01*
X111482143Y-73175904D01*
X111386905Y-73128285D01*
X111148810Y-73128285D01*
X111053571Y-73175904D01*
X111005952Y-73223523D01*
X110958333Y-73318761D01*
X110958333Y-73509238D01*
X111005952Y-73604476D01*
X111053571Y-73652095D01*
X111148810Y-73699714D01*
X127928643Y-76493666D02*
X127976262Y-76541285D01*
X128023881Y-76684142D01*
X128023881Y-76779380D01*
X127976262Y-76922238D01*
X127881024Y-77017476D01*
X127785786Y-77065095D01*
X127595310Y-77112714D01*
X127452452Y-77112714D01*
X127261976Y-77065095D01*
X127166738Y-77017476D01*
X127071500Y-76922238D01*
X127023881Y-76779380D01*
X127023881Y-76684142D01*
X127071500Y-76541285D01*
X127119119Y-76493666D01*
X127023881Y-76160333D02*
X127023881Y-75493666D01*
X128023881Y-75922238D01*
X126341143Y-67540166D02*
X126388762Y-67587785D01*
X126436381Y-67730642D01*
X126436381Y-67825880D01*
X126388762Y-67968738D01*
X126293524Y-68063976D01*
X126198286Y-68111595D01*
X126007810Y-68159214D01*
X125864952Y-68159214D01*
X125674476Y-68111595D01*
X125579238Y-68063976D01*
X125484000Y-67968738D01*
X125436381Y-67825880D01*
X125436381Y-67730642D01*
X125484000Y-67587785D01*
X125531619Y-67540166D01*
X125864952Y-66968738D02*
X125817333Y-67063976D01*
X125769714Y-67111595D01*
X125674476Y-67159214D01*
X125626857Y-67159214D01*
X125531619Y-67111595D01*
X125484000Y-67063976D01*
X125436381Y-66968738D01*
X125436381Y-66778261D01*
X125484000Y-66683023D01*
X125531619Y-66635404D01*
X125626857Y-66587785D01*
X125674476Y-66587785D01*
X125769714Y-66635404D01*
X125817333Y-66683023D01*
X125864952Y-66778261D01*
X125864952Y-66968738D01*
X125912571Y-67063976D01*
X125960190Y-67111595D01*
X126055429Y-67159214D01*
X126245905Y-67159214D01*
X126341143Y-67111595D01*
X126388762Y-67063976D01*
X126436381Y-66968738D01*
X126436381Y-66778261D01*
X126388762Y-66683023D01*
X126341143Y-66635404D01*
X126245905Y-66587785D01*
X126055429Y-66587785D01*
X125960190Y-66635404D01*
X125912571Y-66683023D01*
X125864952Y-66778261D01*
X121689834Y-62396643D02*
X121642215Y-62444262D01*
X121499358Y-62491881D01*
X121404120Y-62491881D01*
X121261262Y-62444262D01*
X121166024Y-62349024D01*
X121118405Y-62253786D01*
X121070786Y-62063310D01*
X121070786Y-61920452D01*
X121118405Y-61729976D01*
X121166024Y-61634738D01*
X121261262Y-61539500D01*
X121404120Y-61491881D01*
X121499358Y-61491881D01*
X121642215Y-61539500D01*
X121689834Y-61587119D01*
X122166024Y-62491881D02*
X122356500Y-62491881D01*
X122451739Y-62444262D01*
X122499358Y-62396643D01*
X122594596Y-62253786D01*
X122642215Y-62063310D01*
X122642215Y-61682357D01*
X122594596Y-61587119D01*
X122546977Y-61539500D01*
X122451739Y-61491881D01*
X122261262Y-61491881D01*
X122166024Y-61539500D01*
X122118405Y-61587119D01*
X122070786Y-61682357D01*
X122070786Y-61920452D01*
X122118405Y-62015690D01*
X122166024Y-62063310D01*
X122261262Y-62110929D01*
X122451739Y-62110929D01*
X122546977Y-62063310D01*
X122594596Y-62015690D01*
X122642215Y-61920452D01*
X123547143Y-79763857D02*
X123594762Y-79811476D01*
X123642381Y-79954333D01*
X123642381Y-80049571D01*
X123594762Y-80192429D01*
X123499524Y-80287667D01*
X123404286Y-80335286D01*
X123213810Y-80382905D01*
X123070952Y-80382905D01*
X122880476Y-80335286D01*
X122785238Y-80287667D01*
X122690000Y-80192429D01*
X122642381Y-80049571D01*
X122642381Y-79954333D01*
X122690000Y-79811476D01*
X122737619Y-79763857D01*
X123642381Y-78811476D02*
X123642381Y-79382905D01*
X123642381Y-79097191D02*
X122642381Y-79097191D01*
X122785238Y-79192429D01*
X122880476Y-79287667D01*
X122928095Y-79382905D01*
X123642381Y-77859095D02*
X123642381Y-78430524D01*
X123642381Y-78144810D02*
X122642381Y-78144810D01*
X122785238Y-78240048D01*
X122880476Y-78335286D01*
X122928095Y-78430524D01*
X109704143Y-74175857D02*
X109751762Y-74223476D01*
X109799381Y-74366333D01*
X109799381Y-74461571D01*
X109751762Y-74604429D01*
X109656524Y-74699667D01*
X109561286Y-74747286D01*
X109370810Y-74794905D01*
X109227952Y-74794905D01*
X109037476Y-74747286D01*
X108942238Y-74699667D01*
X108847000Y-74604429D01*
X108799381Y-74461571D01*
X108799381Y-74366333D01*
X108847000Y-74223476D01*
X108894619Y-74175857D01*
X109799381Y-73223476D02*
X109799381Y-73794905D01*
X109799381Y-73509191D02*
X108799381Y-73509191D01*
X108942238Y-73604429D01*
X109037476Y-73699667D01*
X109085095Y-73794905D01*
X109132714Y-72366333D02*
X109799381Y-72366333D01*
X108751762Y-72604429D02*
X109466048Y-72842524D01*
X109466048Y-72223476D01*
X106259381Y-69484833D02*
X106973667Y-69484833D01*
X107116524Y-69532453D01*
X107211762Y-69627691D01*
X107259381Y-69770548D01*
X107259381Y-69865786D01*
X107259381Y-68484833D02*
X107259381Y-69056262D01*
X107259381Y-68770548D02*
X106259381Y-68770548D01*
X106402238Y-68865786D01*
X106497476Y-68961024D01*
X106545095Y-69056262D01*
D15*
X103454238Y-70158000D02*
X103416143Y-70138952D01*
X103359000Y-70138952D01*
X103301857Y-70158000D01*
X103263762Y-70196095D01*
X103244714Y-70234190D01*
X103225666Y-70310381D01*
X103225666Y-70367524D01*
X103244714Y-70443714D01*
X103263762Y-70481810D01*
X103301857Y-70519905D01*
X103359000Y-70538952D01*
X103397095Y-70538952D01*
X103454238Y-70519905D01*
X103473286Y-70500857D01*
X103473286Y-70367524D01*
X103397095Y-70367524D01*
X103644714Y-70538952D02*
X103644714Y-70138952D01*
X103873286Y-70538952D01*
X103873286Y-70138952D01*
X104063762Y-70538952D02*
X104063762Y-70138952D01*
X104159000Y-70138952D01*
X104216143Y-70158000D01*
X104254238Y-70196095D01*
X104273286Y-70234190D01*
X104292334Y-70310381D01*
X104292334Y-70367524D01*
X104273286Y-70443714D01*
X104254238Y-70481810D01*
X104216143Y-70519905D01*
X104159000Y-70538952D01*
X104063762Y-70538952D01*
X103559000Y-69903952D02*
X103559000Y-69503952D01*
X103749476Y-69903952D02*
X103749476Y-69503952D01*
X103844714Y-69503952D01*
X103901857Y-69523000D01*
X103939952Y-69561095D01*
X103959000Y-69599190D01*
X103978048Y-69675381D01*
X103978048Y-69732524D01*
X103959000Y-69808714D01*
X103939952Y-69846810D01*
X103901857Y-69884905D01*
X103844714Y-69903952D01*
X103749476Y-69903952D01*
X103533619Y-69268952D02*
X103533619Y-68868952D01*
X103628857Y-68868952D01*
X103686000Y-68888000D01*
X103724095Y-68926095D01*
X103743143Y-68964190D01*
X103762191Y-69040381D01*
X103762191Y-69097524D01*
X103743143Y-69173714D01*
X103724095Y-69211810D01*
X103686000Y-69249905D01*
X103628857Y-69268952D01*
X103533619Y-69268952D01*
X103933619Y-69116571D02*
X104238381Y-69116571D01*
X104086000Y-69268952D02*
X104086000Y-68964190D01*
X103533619Y-68633952D02*
X103533619Y-68233952D01*
X103628857Y-68233952D01*
X103686000Y-68253000D01*
X103724095Y-68291095D01*
X103743143Y-68329190D01*
X103762191Y-68405381D01*
X103762191Y-68462524D01*
X103743143Y-68538714D01*
X103724095Y-68576810D01*
X103686000Y-68614905D01*
X103628857Y-68633952D01*
X103533619Y-68633952D01*
X103933619Y-68481571D02*
X104238381Y-68481571D01*
X102771667Y-67598952D02*
X102905001Y-67998952D01*
X103038334Y-67598952D01*
X103305000Y-67789429D02*
X103362143Y-67808476D01*
X103381191Y-67827524D01*
X103400239Y-67865619D01*
X103400239Y-67922762D01*
X103381191Y-67960857D01*
X103362143Y-67979905D01*
X103324048Y-67998952D01*
X103171667Y-67998952D01*
X103171667Y-67598952D01*
X103305000Y-67598952D01*
X103343096Y-67618000D01*
X103362143Y-67637048D01*
X103381191Y-67675143D01*
X103381191Y-67713238D01*
X103362143Y-67751333D01*
X103343096Y-67770381D01*
X103305000Y-67789429D01*
X103171667Y-67789429D01*
X103571667Y-67598952D02*
X103571667Y-67922762D01*
X103590715Y-67960857D01*
X103609762Y-67979905D01*
X103647858Y-67998952D01*
X103724048Y-67998952D01*
X103762143Y-67979905D01*
X103781191Y-67960857D01*
X103800239Y-67922762D01*
X103800239Y-67598952D01*
X103971667Y-67979905D02*
X104028810Y-67998952D01*
X104124048Y-67998952D01*
X104162144Y-67979905D01*
X104181191Y-67960857D01*
X104200239Y-67922762D01*
X104200239Y-67884667D01*
X104181191Y-67846571D01*
X104162144Y-67827524D01*
X104124048Y-67808476D01*
X104047858Y-67789429D01*
X104009763Y-67770381D01*
X103990715Y-67751333D01*
X103971667Y-67713238D01*
X103971667Y-67675143D01*
X103990715Y-67637048D01*
X104009763Y-67618000D01*
X104047858Y-67598952D01*
X104143096Y-67598952D01*
X104200239Y-67618000D01*
D14*
X121054881Y-84216833D02*
X121769167Y-84216833D01*
X121912024Y-84264453D01*
X122007262Y-84359691D01*
X122054881Y-84502548D01*
X122054881Y-84597786D01*
X121150119Y-83788262D02*
X121102500Y-83740643D01*
X121054881Y-83645405D01*
X121054881Y-83407309D01*
X121102500Y-83312071D01*
X121150119Y-83264452D01*
X121245357Y-83216833D01*
X121340595Y-83216833D01*
X121483452Y-83264452D01*
X122054881Y-83835881D01*
X122054881Y-83216833D01*
X114577905Y-85796381D02*
X114577905Y-84796381D01*
X114958858Y-84796381D01*
X115054096Y-84844000D01*
X115101715Y-84891619D01*
X115149334Y-84986857D01*
X115149334Y-85129714D01*
X115101715Y-85224952D01*
X115054096Y-85272571D01*
X114958858Y-85320190D01*
X114577905Y-85320190D01*
X115482667Y-84796381D02*
X116101715Y-84796381D01*
X115768381Y-85177333D01*
X115911239Y-85177333D01*
X116006477Y-85224952D01*
X116054096Y-85272571D01*
X116101715Y-85367810D01*
X116101715Y-85605905D01*
X116054096Y-85701143D01*
X116006477Y-85748762D01*
X115911239Y-85796381D01*
X115625524Y-85796381D01*
X115530286Y-85748762D01*
X115482667Y-85701143D01*
X157538335Y-78059381D02*
X157205001Y-77583190D01*
X156966906Y-78059381D02*
X156966906Y-77059381D01*
X157347859Y-77059381D01*
X157443097Y-77107000D01*
X157490716Y-77154619D01*
X157538335Y-77249857D01*
X157538335Y-77392714D01*
X157490716Y-77487952D01*
X157443097Y-77535571D01*
X157347859Y-77583190D01*
X156966906Y-77583190D01*
X158490716Y-78059381D02*
X157919287Y-78059381D01*
X158205001Y-78059381D02*
X158205001Y-77059381D01*
X158109763Y-77202238D01*
X158014525Y-77297476D01*
X157919287Y-77345095D01*
X128722381Y-60491666D02*
X128246190Y-60825000D01*
X128722381Y-61063095D02*
X127722381Y-61063095D01*
X127722381Y-60682142D01*
X127770000Y-60586904D01*
X127817619Y-60539285D01*
X127912857Y-60491666D01*
X128055714Y-60491666D01*
X128150952Y-60539285D01*
X128198571Y-60586904D01*
X128246190Y-60682142D01*
X128246190Y-61063095D01*
X127817619Y-60110714D02*
X127770000Y-60063095D01*
X127722381Y-59967857D01*
X127722381Y-59729761D01*
X127770000Y-59634523D01*
X127817619Y-59586904D01*
X127912857Y-59539285D01*
X128008095Y-59539285D01*
X128150952Y-59586904D01*
X128722381Y-60158333D01*
X128722381Y-59539285D01*
X122562881Y-57189666D02*
X122086690Y-57523000D01*
X122562881Y-57761095D02*
X121562881Y-57761095D01*
X121562881Y-57380142D01*
X121610500Y-57284904D01*
X121658119Y-57237285D01*
X121753357Y-57189666D01*
X121896214Y-57189666D01*
X121991452Y-57237285D01*
X122039071Y-57284904D01*
X122086690Y-57380142D01*
X122086690Y-57761095D01*
X121562881Y-56856333D02*
X121562881Y-56237285D01*
X121943833Y-56570619D01*
X121943833Y-56427761D01*
X121991452Y-56332523D01*
X122039071Y-56284904D01*
X122134310Y-56237285D01*
X122372405Y-56237285D01*
X122467643Y-56284904D01*
X122515262Y-56332523D01*
X122562881Y-56427761D01*
X122562881Y-56713476D01*
X122515262Y-56808714D01*
X122467643Y-56856333D01*
X113482381Y-74080666D02*
X113006190Y-74414000D01*
X113482381Y-74652095D02*
X112482381Y-74652095D01*
X112482381Y-74271142D01*
X112530000Y-74175904D01*
X112577619Y-74128285D01*
X112672857Y-74080666D01*
X112815714Y-74080666D01*
X112910952Y-74128285D01*
X112958571Y-74175904D01*
X113006190Y-74271142D01*
X113006190Y-74652095D01*
X112482381Y-73175904D02*
X112482381Y-73652095D01*
X112958571Y-73699714D01*
X112910952Y-73652095D01*
X112863333Y-73556857D01*
X112863333Y-73318761D01*
X112910952Y-73223523D01*
X112958571Y-73175904D01*
X113053810Y-73128285D01*
X113291905Y-73128285D01*
X113387143Y-73175904D01*
X113434762Y-73223523D01*
X113482381Y-73318761D01*
X113482381Y-73556857D01*
X113434762Y-73652095D01*
X113387143Y-73699714D01*
X151852858Y-61991762D02*
X151995715Y-62039381D01*
X152233811Y-62039381D01*
X152329049Y-61991762D01*
X152376668Y-61944143D01*
X152424287Y-61848905D01*
X152424287Y-61753667D01*
X152376668Y-61658429D01*
X152329049Y-61610810D01*
X152233811Y-61563190D01*
X152043334Y-61515571D01*
X151948096Y-61467952D01*
X151900477Y-61420333D01*
X151852858Y-61325095D01*
X151852858Y-61229857D01*
X151900477Y-61134619D01*
X151948096Y-61087000D01*
X152043334Y-61039381D01*
X152281430Y-61039381D01*
X152424287Y-61087000D01*
X152757620Y-61039381D02*
X152995715Y-62039381D01*
X153186192Y-61325095D01*
X153376668Y-62039381D01*
X153614763Y-61039381D01*
X154519525Y-62039381D02*
X153948096Y-62039381D01*
X154233810Y-62039381D02*
X154233810Y-61039381D01*
X154138572Y-61182238D01*
X154043334Y-61277476D01*
X153948096Y-61325095D01*
X102806595Y-76541381D02*
X102806595Y-77350905D01*
X102854214Y-77446143D01*
X102901833Y-77493762D01*
X102997071Y-77541381D01*
X103187548Y-77541381D01*
X103282786Y-77493762D01*
X103330405Y-77446143D01*
X103378024Y-77350905D01*
X103378024Y-76541381D01*
X104378024Y-77541381D02*
X103806595Y-77541381D01*
X104092309Y-77541381D02*
X104092309Y-76541381D01*
X103997071Y-76684238D01*
X103901833Y-76779476D01*
X103806595Y-76827095D01*
X117919595Y-67524381D02*
X117919595Y-68333905D01*
X117967214Y-68429143D01*
X118014833Y-68476762D01*
X118110071Y-68524381D01*
X118300548Y-68524381D01*
X118395786Y-68476762D01*
X118443405Y-68429143D01*
X118491024Y-68333905D01*
X118491024Y-67524381D01*
X118919595Y-67619619D02*
X118967214Y-67572000D01*
X119062452Y-67524381D01*
X119300548Y-67524381D01*
X119395786Y-67572000D01*
X119443405Y-67619619D01*
X119491024Y-67714857D01*
X119491024Y-67810095D01*
X119443405Y-67952952D01*
X118871976Y-68524381D01*
X119491024Y-68524381D01*
X117094095Y-57745381D02*
X117094095Y-58554905D01*
X117141714Y-58650143D01*
X117189333Y-58697762D01*
X117284571Y-58745381D01*
X117475048Y-58745381D01*
X117570286Y-58697762D01*
X117617905Y-58650143D01*
X117665524Y-58554905D01*
X117665524Y-57745381D01*
X118046476Y-57745381D02*
X118665524Y-57745381D01*
X118332190Y-58126333D01*
X118475048Y-58126333D01*
X118570286Y-58173952D01*
X118617905Y-58221571D01*
X118665524Y-58316810D01*
X118665524Y-58554905D01*
X118617905Y-58650143D01*
X118570286Y-58697762D01*
X118475048Y-58745381D01*
X118189333Y-58745381D01*
X118094095Y-58697762D01*
X118046476Y-58650143D01*
X106108595Y-60348881D02*
X106108595Y-61158405D01*
X106156214Y-61253643D01*
X106203833Y-61301262D01*
X106299071Y-61348881D01*
X106489548Y-61348881D01*
X106584786Y-61301262D01*
X106632405Y-61253643D01*
X106680024Y-61158405D01*
X106680024Y-60348881D01*
X107584786Y-60682214D02*
X107584786Y-61348881D01*
X107346690Y-60301262D02*
X107108595Y-61015548D01*
X107727643Y-61015548D01*
X115276381Y-75437905D02*
X116085905Y-75437905D01*
X116181143Y-75390286D01*
X116228762Y-75342667D01*
X116276381Y-75247429D01*
X116276381Y-75056952D01*
X116228762Y-74961714D01*
X116181143Y-74914095D01*
X116085905Y-74866476D01*
X115276381Y-74866476D01*
X115276381Y-73914095D02*
X115276381Y-74390286D01*
X115752571Y-74437905D01*
X115704952Y-74390286D01*
X115657333Y-74295048D01*
X115657333Y-74056952D01*
X115704952Y-73961714D01*
X115752571Y-73914095D01*
X115847810Y-73866476D01*
X116085905Y-73866476D01*
X116181143Y-73914095D01*
X116228762Y-73961714D01*
X116276381Y-74056952D01*
X116276381Y-74295048D01*
X116228762Y-74390286D01*
X116181143Y-74437905D01*
X125198190Y-73945691D02*
X125674381Y-73945691D01*
X124674381Y-74279024D02*
X125198190Y-73945691D01*
X124674381Y-73612357D01*
X125674381Y-72755214D02*
X125674381Y-73326643D01*
X125674381Y-73040929D02*
X124674381Y-73040929D01*
X124817238Y-73136167D01*
X124912476Y-73231405D01*
X124960095Y-73326643D01*
X113323690Y-62642691D02*
X113799881Y-62642691D01*
X112799881Y-62976024D02*
X113323690Y-62642691D01*
X112799881Y-62309357D01*
X112895119Y-62023643D02*
X112847500Y-61976024D01*
X112799881Y-61880786D01*
X112799881Y-61642690D01*
X112847500Y-61547452D01*
X112895119Y-61499833D01*
X112990357Y-61452214D01*
X113085595Y-61452214D01*
X113228452Y-61499833D01*
X113799881Y-62071262D01*
X113799881Y-61452214D01*
X92722867Y-53614581D02*
X92389533Y-53138390D01*
X92151438Y-53614581D02*
X92151438Y-52614581D01*
X92532391Y-52614581D01*
X92627629Y-52662200D01*
X92675248Y-52709819D01*
X92722867Y-52805057D01*
X92722867Y-52947914D01*
X92675248Y-53043152D01*
X92627629Y-53090771D01*
X92532391Y-53138390D01*
X92151438Y-53138390D01*
X93151438Y-53090771D02*
X93484772Y-53090771D01*
X93627629Y-53614581D02*
X93151438Y-53614581D01*
X93151438Y-52614581D01*
X93627629Y-52614581D01*
X94389534Y-53090771D02*
X94056200Y-53090771D01*
X94056200Y-53614581D02*
X94056200Y-52614581D01*
X94532391Y-52614581D01*
X95056200Y-52614581D02*
X95056200Y-52852676D01*
X94818105Y-52757438D02*
X95056200Y-52852676D01*
X95294296Y-52757438D01*
X94913343Y-53043152D02*
X95056200Y-52852676D01*
X95199058Y-53043152D01*
X95818105Y-52614581D02*
X95818105Y-52852676D01*
X95580010Y-52757438D02*
X95818105Y-52852676D01*
X96056201Y-52757438D01*
X95675248Y-53043152D02*
X95818105Y-52852676D01*
X95960963Y-53043152D01*
M02*
