G04 #@! TF.FileFunction,Legend,Bot*
%FSLAX46Y46*%
G04 Gerber Fmt 4.6, Leading zero omitted, Abs format (unit mm)*
G04 Created by KiCad (PCBNEW 4.0.5) date 05/09/17 18:40:16*
%MOMM*%
%LPD*%
G01*
G04 APERTURE LIST*
%ADD10C,0.100000*%
%ADD11C,0.120000*%
%ADD12C,0.150000*%
G04 APERTURE END LIST*
D10*
D11*
X128586000Y-62231000D02*
X128586000Y-63231000D01*
X128296000Y-62231000D02*
X128586000Y-62231000D01*
X128586000Y-65531000D02*
X128586000Y-64531000D01*
X128586000Y-65531000D02*
X128296000Y-65531000D01*
X126086000Y-62231000D02*
X125796000Y-62231000D01*
X125796000Y-62231000D02*
X125796000Y-65531000D01*
X125796000Y-65531000D02*
X126086000Y-65531000D01*
X128586000Y-70359000D02*
X128586000Y-71359000D01*
X128296000Y-70359000D02*
X128586000Y-70359000D01*
X128586000Y-73659000D02*
X128586000Y-72659000D01*
X128586000Y-73659000D02*
X128296000Y-73659000D01*
X126086000Y-70359000D02*
X125796000Y-70359000D01*
X125796000Y-70359000D02*
X125796000Y-73659000D01*
X125796000Y-73659000D02*
X126086000Y-73659000D01*
X128586000Y-77026500D02*
X128586000Y-78026500D01*
X128296000Y-77026500D02*
X128586000Y-77026500D01*
X128586000Y-80326500D02*
X128586000Y-79326500D01*
X128586000Y-80326500D02*
X128296000Y-80326500D01*
X126086000Y-77026500D02*
X125796000Y-77026500D01*
X125796000Y-77026500D02*
X125796000Y-80326500D01*
X125796000Y-80326500D02*
X126086000Y-80326500D01*
D10*
X123611079Y-69278500D02*
G75*
G03X123611079Y-69278500I-9501579J0D01*
G01*
D12*
X125120762Y-62547667D02*
X125168381Y-62690524D01*
X125168381Y-62928620D01*
X125120762Y-63023858D01*
X125073143Y-63071477D01*
X124977905Y-63119096D01*
X124882667Y-63119096D01*
X124787429Y-63071477D01*
X124739810Y-63023858D01*
X124692190Y-62928620D01*
X124644571Y-62738143D01*
X124596952Y-62642905D01*
X124549333Y-62595286D01*
X124454095Y-62547667D01*
X124358857Y-62547667D01*
X124263619Y-62595286D01*
X124216000Y-62642905D01*
X124168381Y-62738143D01*
X124168381Y-62976239D01*
X124216000Y-63119096D01*
X124168381Y-63452429D02*
X125168381Y-63690524D01*
X124454095Y-63881001D01*
X125168381Y-64071477D01*
X124168381Y-64309572D01*
X124263619Y-64642905D02*
X124216000Y-64690524D01*
X124168381Y-64785762D01*
X124168381Y-65023858D01*
X124216000Y-65119096D01*
X124263619Y-65166715D01*
X124358857Y-65214334D01*
X124454095Y-65214334D01*
X124596952Y-65166715D01*
X125168381Y-64595286D01*
X125168381Y-65214334D01*
X125120762Y-70675667D02*
X125168381Y-70818524D01*
X125168381Y-71056620D01*
X125120762Y-71151858D01*
X125073143Y-71199477D01*
X124977905Y-71247096D01*
X124882667Y-71247096D01*
X124787429Y-71199477D01*
X124739810Y-71151858D01*
X124692190Y-71056620D01*
X124644571Y-70866143D01*
X124596952Y-70770905D01*
X124549333Y-70723286D01*
X124454095Y-70675667D01*
X124358857Y-70675667D01*
X124263619Y-70723286D01*
X124216000Y-70770905D01*
X124168381Y-70866143D01*
X124168381Y-71104239D01*
X124216000Y-71247096D01*
X124168381Y-71580429D02*
X125168381Y-71818524D01*
X124454095Y-72009001D01*
X125168381Y-72199477D01*
X124168381Y-72437572D01*
X124168381Y-72723286D02*
X124168381Y-73342334D01*
X124549333Y-73009000D01*
X124549333Y-73151858D01*
X124596952Y-73247096D01*
X124644571Y-73294715D01*
X124739810Y-73342334D01*
X124977905Y-73342334D01*
X125073143Y-73294715D01*
X125120762Y-73247096D01*
X125168381Y-73151858D01*
X125168381Y-72866143D01*
X125120762Y-72770905D01*
X125073143Y-72723286D01*
X125120762Y-77343167D02*
X125168381Y-77486024D01*
X125168381Y-77724120D01*
X125120762Y-77819358D01*
X125073143Y-77866977D01*
X124977905Y-77914596D01*
X124882667Y-77914596D01*
X124787429Y-77866977D01*
X124739810Y-77819358D01*
X124692190Y-77724120D01*
X124644571Y-77533643D01*
X124596952Y-77438405D01*
X124549333Y-77390786D01*
X124454095Y-77343167D01*
X124358857Y-77343167D01*
X124263619Y-77390786D01*
X124216000Y-77438405D01*
X124168381Y-77533643D01*
X124168381Y-77771739D01*
X124216000Y-77914596D01*
X124168381Y-78247929D02*
X125168381Y-78486024D01*
X124454095Y-78676501D01*
X125168381Y-78866977D01*
X124168381Y-79105072D01*
X124501714Y-79914596D02*
X125168381Y-79914596D01*
X124120762Y-79676500D02*
X124835048Y-79438405D01*
X124835048Y-80057453D01*
X102038071Y-68492786D02*
X102085690Y-68635643D01*
X102133310Y-68683262D01*
X102228548Y-68730881D01*
X102371405Y-68730881D01*
X102466643Y-68683262D01*
X102514262Y-68635643D01*
X102561881Y-68540405D01*
X102561881Y-68159452D01*
X101561881Y-68159452D01*
X101561881Y-68492786D01*
X101609500Y-68588024D01*
X101657119Y-68635643D01*
X101752357Y-68683262D01*
X101847595Y-68683262D01*
X101942833Y-68635643D01*
X101990452Y-68588024D01*
X102038071Y-68492786D01*
X102038071Y-68159452D01*
X101561881Y-69016595D02*
X101561881Y-69588024D01*
X102561881Y-69302309D02*
X101561881Y-69302309D01*
X102561881Y-70445167D02*
X102561881Y-69873738D01*
X102561881Y-70159452D02*
X101561881Y-70159452D01*
X101704738Y-70064214D01*
X101799976Y-69968976D01*
X101847595Y-69873738D01*
X110752357Y-66897547D02*
X110752357Y-68421357D01*
X110180929Y-69183261D02*
X111514262Y-69659452D01*
X110180929Y-70135642D01*
X111419024Y-71659452D02*
X111514262Y-71468976D01*
X111514262Y-71088024D01*
X111419024Y-70897547D01*
X111228548Y-70802309D01*
X110466643Y-70802309D01*
X110276167Y-70897547D01*
X110180929Y-71088024D01*
X110180929Y-71468976D01*
X110276167Y-71659452D01*
X110466643Y-71754690D01*
X110657119Y-71754690D01*
X110847595Y-70802309D01*
X115716643Y-80207072D02*
X115716643Y-81349929D01*
X116288071Y-80778500D02*
X115145214Y-80778500D01*
X115516643Y-57307072D02*
X115516643Y-58449929D01*
X116088071Y-57878500D02*
X114945214Y-57878500D01*
M02*
