G04 #@! TF.FileFunction,Legend,Bot*
%FSLAX46Y46*%
G04 Gerber Fmt 4.6, Leading zero omitted, Abs format (unit mm)*
G04 Created by KiCad (PCBNEW 4.0.5) date 05/04/17 19:44:32*
%MOMM*%
%LPD*%
G01*
G04 APERTURE LIST*
%ADD10C,0.100000*%
%ADD11C,0.120000*%
%ADD12C,0.150000*%
G04 APERTURE END LIST*
D10*
D11*
X128586000Y-77852000D02*
X128586000Y-78852000D01*
X128296000Y-77852000D02*
X128586000Y-77852000D01*
X128586000Y-81152000D02*
X128586000Y-80152000D01*
X128586000Y-81152000D02*
X128296000Y-81152000D01*
X126086000Y-77852000D02*
X125796000Y-77852000D01*
X125796000Y-77852000D02*
X125796000Y-81152000D01*
X125796000Y-81152000D02*
X126086000Y-81152000D01*
X128586000Y-70359000D02*
X128586000Y-71359000D01*
X128296000Y-70359000D02*
X128586000Y-70359000D01*
X128586000Y-73659000D02*
X128586000Y-72659000D01*
X128586000Y-73659000D02*
X128296000Y-73659000D01*
X126086000Y-70359000D02*
X125796000Y-70359000D01*
X125796000Y-70359000D02*
X125796000Y-73659000D01*
X125796000Y-73659000D02*
X126086000Y-73659000D01*
X128586000Y-62485000D02*
X128586000Y-63485000D01*
X128296000Y-62485000D02*
X128586000Y-62485000D01*
X128586000Y-65785000D02*
X128586000Y-64785000D01*
X128586000Y-65785000D02*
X128296000Y-65785000D01*
X126086000Y-62485000D02*
X125796000Y-62485000D01*
X125796000Y-62485000D02*
X125796000Y-65785000D01*
X125796000Y-65785000D02*
X126086000Y-65785000D01*
D10*
X124055579Y-71120000D02*
G75*
G03X124055579Y-71120000I-9501579J0D01*
G01*
D12*
X125120762Y-78168667D02*
X125168381Y-78311524D01*
X125168381Y-78549620D01*
X125120762Y-78644858D01*
X125073143Y-78692477D01*
X124977905Y-78740096D01*
X124882667Y-78740096D01*
X124787429Y-78692477D01*
X124739810Y-78644858D01*
X124692190Y-78549620D01*
X124644571Y-78359143D01*
X124596952Y-78263905D01*
X124549333Y-78216286D01*
X124454095Y-78168667D01*
X124358857Y-78168667D01*
X124263619Y-78216286D01*
X124216000Y-78263905D01*
X124168381Y-78359143D01*
X124168381Y-78597239D01*
X124216000Y-78740096D01*
X124168381Y-79073429D02*
X125168381Y-79311524D01*
X124454095Y-79502001D01*
X125168381Y-79692477D01*
X124168381Y-79930572D01*
X124263619Y-80263905D02*
X124216000Y-80311524D01*
X124168381Y-80406762D01*
X124168381Y-80644858D01*
X124216000Y-80740096D01*
X124263619Y-80787715D01*
X124358857Y-80835334D01*
X124454095Y-80835334D01*
X124596952Y-80787715D01*
X125168381Y-80216286D01*
X125168381Y-80835334D01*
X125120762Y-70675667D02*
X125168381Y-70818524D01*
X125168381Y-71056620D01*
X125120762Y-71151858D01*
X125073143Y-71199477D01*
X124977905Y-71247096D01*
X124882667Y-71247096D01*
X124787429Y-71199477D01*
X124739810Y-71151858D01*
X124692190Y-71056620D01*
X124644571Y-70866143D01*
X124596952Y-70770905D01*
X124549333Y-70723286D01*
X124454095Y-70675667D01*
X124358857Y-70675667D01*
X124263619Y-70723286D01*
X124216000Y-70770905D01*
X124168381Y-70866143D01*
X124168381Y-71104239D01*
X124216000Y-71247096D01*
X124168381Y-71580429D02*
X125168381Y-71818524D01*
X124454095Y-72009001D01*
X125168381Y-72199477D01*
X124168381Y-72437572D01*
X124168381Y-72723286D02*
X124168381Y-73342334D01*
X124549333Y-73009000D01*
X124549333Y-73151858D01*
X124596952Y-73247096D01*
X124644571Y-73294715D01*
X124739810Y-73342334D01*
X124977905Y-73342334D01*
X125073143Y-73294715D01*
X125120762Y-73247096D01*
X125168381Y-73151858D01*
X125168381Y-72866143D01*
X125120762Y-72770905D01*
X125073143Y-72723286D01*
X125120762Y-62801667D02*
X125168381Y-62944524D01*
X125168381Y-63182620D01*
X125120762Y-63277858D01*
X125073143Y-63325477D01*
X124977905Y-63373096D01*
X124882667Y-63373096D01*
X124787429Y-63325477D01*
X124739810Y-63277858D01*
X124692190Y-63182620D01*
X124644571Y-62992143D01*
X124596952Y-62896905D01*
X124549333Y-62849286D01*
X124454095Y-62801667D01*
X124358857Y-62801667D01*
X124263619Y-62849286D01*
X124216000Y-62896905D01*
X124168381Y-62992143D01*
X124168381Y-63230239D01*
X124216000Y-63373096D01*
X124168381Y-63706429D02*
X125168381Y-63944524D01*
X124454095Y-64135001D01*
X125168381Y-64325477D01*
X124168381Y-64563572D01*
X124501714Y-65373096D02*
X125168381Y-65373096D01*
X124120762Y-65135000D02*
X124835048Y-64896905D01*
X124835048Y-65515953D01*
X126482571Y-70334286D02*
X126530190Y-70477143D01*
X126577810Y-70524762D01*
X126673048Y-70572381D01*
X126815905Y-70572381D01*
X126911143Y-70524762D01*
X126958762Y-70477143D01*
X127006381Y-70381905D01*
X127006381Y-70000952D01*
X126006381Y-70000952D01*
X126006381Y-70334286D01*
X126054000Y-70429524D01*
X126101619Y-70477143D01*
X126196857Y-70524762D01*
X126292095Y-70524762D01*
X126387333Y-70477143D01*
X126434952Y-70429524D01*
X126482571Y-70334286D01*
X126482571Y-70000952D01*
X126006381Y-70858095D02*
X126006381Y-71429524D01*
X127006381Y-71143809D02*
X126006381Y-71143809D01*
X127006381Y-72286667D02*
X127006381Y-71715238D01*
X127006381Y-72000952D02*
X126006381Y-72000952D01*
X126149238Y-71905714D01*
X126244476Y-71810476D01*
X126292095Y-71715238D01*
X118196857Y-68739047D02*
X118196857Y-70262857D01*
X117625429Y-71024761D02*
X118958762Y-71500952D01*
X117625429Y-71977142D01*
X118863524Y-73500952D02*
X118958762Y-73310476D01*
X118958762Y-72929524D01*
X118863524Y-72739047D01*
X118673048Y-72643809D01*
X117911143Y-72643809D01*
X117720667Y-72739047D01*
X117625429Y-72929524D01*
X117625429Y-73310476D01*
X117720667Y-73500952D01*
X117911143Y-73596190D01*
X118101619Y-73596190D01*
X118292095Y-72643809D01*
X113161143Y-59048572D02*
X113161143Y-60191429D01*
X113732571Y-59620000D02*
X112589714Y-59620000D01*
X113361143Y-81948572D02*
X113361143Y-83091429D01*
X113932571Y-82520000D02*
X112789714Y-82520000D01*
M02*
