M48
;DRILL file {KiCad 4.0.5} date 09/25/17 19:23:12
;FORMAT={-:-/ absolute / metric / decimal}
FMAT,2
METRIC,TZ
T1C0.330
T2C0.650
T3C1.000
T4C2.100
%
G90
G05
M71
T1
X101.917Y-74.612
X101.981Y-70.802
X102.108Y-78.359
X103.124Y-69.659
X103.251Y-68.516
X103.822Y-70.929
X104.648Y-76.454
X105.156Y-75.565
X105.791Y-78.359
X106.426Y-86.614
X106.489Y-83.693
X106.553Y-74.295
X107.188Y-59.753
X107.251Y-61.023
X107.823Y-66.675
X107.823Y-67.691
X107.823Y-83.566
X107.886Y-68.644
X107.886Y-81.534
X107.95Y-69.596
X108.013Y-71.628
X108.013Y-82.677
X108.458Y-59.69
X109.029Y-75.184
X109.093Y-73.469
X109.347Y-58.801
X110.426Y-76.772
X110.744Y-70.739
X110.807Y-69.85
X110.947Y-80.594
X111.061Y-57.531
X111.316Y-72.644
X111.442Y-63.182
X111.76Y-66.739
X112.141Y-78.041
X112.268Y-72.644
X112.712Y-84.519
X113.221Y-72.581
X114.63Y-63.322
X114.681Y-80.709
X115.062Y-85.471
X115.633Y-64.135
X115.633Y-72.581
X116.205Y-84.772
X116.522Y-72.581
X117.03Y-59.69
X117.221Y-60.896
X117.246Y-83.312
X117.538Y-80.772
X119.634Y-58.483
X119.939Y-69.317
X119.951Y-67.691
X120.269Y-76.708
X120.587Y-64.135
X120.587Y-79.819
X121.031Y-81.28
X121.856Y-80.137
X122.682Y-56.134
X122.999Y-77.216
X123.241Y-62.179
X123.317Y-79.248
X124.435Y-72.72
X124.714Y-65.532
X126.111Y-63.119
X127.127Y-66.929
X128.143Y-81.153
T2
X123.825Y-81.661
X123.825Y-82.931
X123.825Y-84.201
X123.825Y-85.471
X123.825Y-86.741
T3
X129.254Y-63.119
X129.254Y-71.501
X129.254Y-80.01
T4
X103.124Y-56.388
X103.124Y-86.614
X127.508Y-56.388
X127.508Y-86.614
T0
M30
