G04 #@! TF.FileFunction,Copper,L3,Inr,Signal*
%FSLAX46Y46*%
G04 Gerber Fmt 4.6, Leading zero omitted, Abs format (unit mm)*
G04 Created by KiCad (PCBNEW 4.0.5) date 05/10/17 18:34:13*
%MOMM*%
%LPD*%
G01*
G04 APERTURE LIST*
%ADD10C,0.100000*%
%ADD11R,1.000000X1.000000*%
%ADD12O,1.000000X1.000000*%
%ADD13C,0.685800*%
%ADD14C,0.152400*%
%ADD15C,0.300000*%
G04 APERTURE END LIST*
D10*
D11*
X123825000Y-86741000D03*
D12*
X123825000Y-85471000D03*
X123825000Y-84201000D03*
X123825000Y-82931000D03*
X123825000Y-81661000D03*
D13*
X114681000Y-80708500D03*
X115951000Y-57467500D03*
X128143000Y-82550000D03*
X120078500Y-76962000D03*
X104648000Y-76454000D03*
X110426500Y-76771500D03*
X113220500Y-72580500D03*
X117538500Y-80772000D03*
X111442500Y-63182500D03*
X115633500Y-64135000D03*
X120586500Y-64135000D03*
X127063500Y-64325500D03*
X126238000Y-75184000D03*
X107188000Y-59753500D03*
X103822500Y-70929500D03*
X119634000Y-58483500D03*
X106489500Y-83693000D03*
X122999500Y-77216000D03*
X121856500Y-80137000D03*
X111315500Y-72644000D03*
X115125500Y-84709000D03*
X101917500Y-74612500D03*
X101981000Y-70802500D03*
X103124000Y-69659500D03*
X109093000Y-73469500D03*
X103251000Y-68516500D03*
X108013500Y-71628000D03*
X117094000Y-83502500D03*
X116522500Y-72580500D03*
X115633500Y-72580500D03*
X110934500Y-80772000D03*
X112712500Y-84518500D03*
X110680500Y-70866000D03*
X106553000Y-74295000D03*
X107823000Y-83566000D03*
X108013500Y-82677000D03*
X107886500Y-68643500D03*
X109029500Y-75184000D03*
X107950000Y-69596000D03*
X107886500Y-81534000D03*
X112268000Y-72644000D03*
X116205000Y-84772500D03*
X108521500Y-59372500D03*
X107823000Y-66675000D03*
X117030500Y-59690000D03*
X111061500Y-57531000D03*
X108775500Y-58420000D03*
X108013500Y-67691000D03*
X112141000Y-78041500D03*
X120586500Y-79819500D03*
X117221000Y-60896500D03*
X111760000Y-66738500D03*
X127190500Y-61087000D03*
X125857000Y-69723000D03*
X110807500Y-66738500D03*
X128524000Y-75946000D03*
X110807500Y-69850000D03*
X107251500Y-61023500D03*
X110363000Y-63881000D03*
X125095000Y-65532000D03*
X119951500Y-67691000D03*
D14*
X111315500Y-72644000D02*
X111315500Y-75882500D01*
X122618500Y-77597000D02*
X122999500Y-77216000D01*
X113030000Y-77597000D02*
X122618500Y-77597000D01*
X111315500Y-75882500D02*
X113030000Y-77597000D01*
X121856500Y-80137000D02*
X121856500Y-82296000D01*
X121856500Y-82296000D02*
X121539000Y-82613500D01*
X115125500Y-84709000D02*
X115887500Y-83947000D01*
X115887500Y-83947000D02*
X115887500Y-83375500D01*
X115887500Y-83375500D02*
X116649500Y-82613500D01*
X116649500Y-82613500D02*
X121539000Y-82613500D01*
X121539000Y-82613500D02*
X121856500Y-82613500D01*
X121856500Y-82613500D02*
X122047000Y-82613500D01*
X122047000Y-82613500D02*
X122364500Y-82931000D01*
X122364500Y-82931000D02*
X123825000Y-82931000D01*
X117475000Y-85471000D02*
X123825000Y-85471000D01*
X117157500Y-85153500D02*
X117475000Y-85471000D01*
X117157500Y-83566000D02*
X117157500Y-85153500D01*
X117094000Y-83502500D02*
X117157500Y-83566000D01*
X107061000Y-70866000D02*
X110680500Y-70866000D01*
X106553000Y-71374000D02*
X107061000Y-70866000D01*
X106553000Y-74295000D02*
X106553000Y-71374000D01*
X105791000Y-68643500D02*
X107886500Y-68643500D01*
X105156000Y-69278500D02*
X105791000Y-68643500D01*
X105156000Y-74231500D02*
X105156000Y-69278500D01*
X105981500Y-75057000D02*
X105156000Y-74231500D01*
X108712000Y-75057000D02*
X105981500Y-75057000D01*
X109029500Y-75184000D02*
X108712000Y-75057000D01*
D15*
X113220500Y-59690000D02*
X117030500Y-59690000D01*
X111061500Y-57531000D02*
X113220500Y-59690000D01*
D14*
X118808500Y-78041500D02*
X112141000Y-78041500D01*
X120586500Y-79819500D02*
X118808500Y-78041500D01*
X111760000Y-66738500D02*
X115443000Y-63055500D01*
X115443000Y-63055500D02*
X123571000Y-63055500D01*
X123571000Y-63055500D02*
X125539500Y-61087000D01*
X125539500Y-61087000D02*
X127190500Y-61087000D01*
X113284000Y-69723000D02*
X125857000Y-69723000D01*
X110807500Y-67246500D02*
X113284000Y-69723000D01*
X110807500Y-66738500D02*
X110807500Y-67246500D01*
X125412500Y-75946000D02*
X128524000Y-75946000D01*
X125031500Y-75565000D02*
X125412500Y-75946000D01*
X125031500Y-70993000D02*
X125031500Y-75565000D01*
X124142500Y-70104000D02*
X125031500Y-70993000D01*
X111061500Y-70104000D02*
X124142500Y-70104000D01*
X110807500Y-69850000D02*
X111061500Y-70104000D01*
M02*
